# xmcd CD database file generated by Grip 2.96
# 
# Track frame offsets:
#       183
#       13075
#       26385
# 
# Disc length: 952 seconds
# 
# Revision: 0
# Processed by: cddbd v1.4PL0 Copyright (c) Steve Scherf et al.
# Submitted via: Grip 2.96
# 
DISCID=1703b603
DTITLE=Diana Ross and The Supremes - Reflections
DYEAR=1900
DGENRE=
TTITLE0=Reflections
TTITLE1=Love Child
TTITLE2=Medley of Hits (Dance mix)
EXTD=
EXTT0=
EXTT1=
EXTT2=
PLAYORDER=
